# xmcd CD database file
#
# Track frame offsets:
#	150
#	21336
#	38997
#	63287
#	83780
#	104591
#	125838
#	149376
#	167169
#	186062
#	200466
#	229442
#	251788
#	284916
#	304528
#	329020
#
# Disc length: 4644 seconds
#
# Revision: 8
# Processed by: cddbd v1.5.2PL0 Copyright (c) Steve Scherf et al.
# Submitted via: CDex 1.51
#
DISCID=fc122210
DTITLE=Eric Clapton - Clapton Chronicles
DYEAR=1999
DGENRE=Rock
TTITLE0=Blue Eyes Blue
TTITLE1=Change The World
TTITLE2=My Father's Eyes
TTITLE3=Tears In Heaven
TTITLE4=Layla (Unplugged Version)
TTITLE5=Pretending
TTITLE6=Bad Love
TTITLE7=Before You Accuse Me (Take A Look At Yourself)
TTITLE8=It's In The Way That You Use It
TTITLE9=Forever Man
TTITLE10=Running On Faith (Unplugged)
TTITLE11=She's Waiting
TTITLE12=River Of Tears
TTITLE13=(I) Get Lost
TTITLE14=Wonderful Tonight (Live Edit)
TTITLE15=Tearing Us Apart
EXTD=YEAR: 1999
EXTT0=
EXTT1=
EXTT2=
EXTT3=
EXTT4=
EXTT5=
EXTT6=
EXTT7=
EXTT8=
EXTT9=
EXTT10=
EXTT11=
EXTT12=
EXTT13=
EXTT14=
EXTT15=
PLAYORDER=
